<mxfile host="app.diagrams.net" modified="2024-03-12T15:34:41.811Z" agent="Mozilla/5.0 (Macintosh; Intel Mac OS X 10_15_7) AppleWebKit/605.1.15 (KHTML, like Gecko) Version/17.2 Safari/605.1.15" version="24.0.5" etag="EQn0-oAu2btNKZ4r7ynN" type="github">
  <diagram name="Trang-1" id="hL88npNrCjS-RBHt7qOn">
    <mxGraphModel>
      <root>
        <mxCell id="0" />
        <mxCell id="1" parent="0" />
      </root>
    </mxGraphModel>
  </diagram>
</mxfile>
